<svg xmlns="http://www.w3.org/2000/svg" xmlns:xlink="http://www.w3.org/1999/xlink" width="126" height="126" viewBox="0 0 126 126"><defs><style>.a,.b{fill:#00a1fe;}.b{opacity:0;}.c{fill:#fff;}.d{filter:url(#a);}</style><filter id="a" x="0" y="0" width="126" height="126" filterUnits="userSpaceOnUse"><feOffset dy="10" input="SourceAlpha"/><feGaussianBlur stdDeviation="15" result="b"/><feFlood flood-color="#7090b0" flood-opacity="0.122"/><feComposite operator="in" in2="b"/><feComposite in="SourceGraphic"/></filter></defs><g transform="translate(29 -365)"><g class="d" transform="matrix(1, 0, 0, 1, -29, 365)"><rect class="a" width="36" height="36" rx="12" transform="translate(45 35)"/></g><g transform="translate(25 409)"><g transform="translate(0 0)"><rect class="b" width="17.851" height="17.851" transform="translate(0.15 0) rotate(0.48)"/><path class="c" d="M10.1,16.488a5.5,5.5,0,0,1-3.927-1.7,5.75,5.75,0,0,1,.074-8.011L9.7,3.323a.7.7,0,0,1,.528-.223.744.744,0,0,1,.528.231l3.392,3.511a5.75,5.75,0,0,1-.067,8.011A5.452,5.452,0,0,1,10.1,16.488Z" transform="translate(-1.173 -0.795)"/></g></g></g></svg>