<svg xmlns="http://www.w3.org/2000/svg" xmlns:xlink="http://www.w3.org/1999/xlink" width="120" height="120" viewBox="0 0 120 120"><defs><style>.a{fill:rgba(0,161,254,0.1);}.b,.c{fill:#00a1fe;}.b{opacity:0;}.d{filter:url(#a);}</style><filter id="a" x="0" y="0" width="120" height="120" filterUnits="userSpaceOnUse"><feOffset dy="10" input="SourceAlpha"/><feGaussianBlur stdDeviation="15" result="b"/><feFlood flood-color="#7090b0" flood-opacity="0.122"/><feComposite operator="in" in2="b"/><feComposite in="SourceGraphic"/></filter></defs><g transform="translate(25.779 26)"><g class="d" transform="matrix(1, 0, 0, 1, -25.78, -26)"><rect class="a" width="30" height="30" rx="12" transform="translate(45 35)"/></g><g transform="translate(26.223 15.999)"><g transform="translate(-0.002 0.001)"><rect class="b" width="15.868" height="15.868" transform="translate(0.133 0) rotate(0.48)"/><path class="c" d="M9.488,15A4.893,4.893,0,0,1,6,13.493a5.111,5.111,0,0,1,.066-7.121L9.13,3.3A.621.621,0,0,1,9.6,3.1a.661.661,0,0,1,.469.2l3.015,3.121a5.111,5.111,0,0,1-.06,7.121A4.846,4.846,0,0,1,9.488,15Z" transform="translate(-1.552 -1.051)"/></g></g></g></svg>