<svg xmlns="http://www.w3.org/2000/svg" width="16" height="16" viewBox="0 0 16 16"><defs><style>.a,.b{fill:#3736a5;}.a{opacity:0;}</style></defs><rect class="a" width="16" height="16"/><circle class="b" cx="1" cy="1" r="1" transform="translate(7 8.333)"/><path class="b" d="M13.333,5.667h-2v-1A1.667,1.667,0,0,0,9.667,3h-2A1.667,1.667,0,0,0,6,4.667v1H4a2,2,0,0,0-2,2V13a2,2,0,0,0,2,2h9.333a2,2,0,0,0,2-2V7.667A2,2,0,0,0,13.333,5.667Zm-6-1a.333.333,0,0,1,.333-.333h2A.333.333,0,0,1,10,4.667v1H7.333Zm1.333,8A2.333,2.333,0,1,1,11,10.333a2.333,2.333,0,0,1-2.333,2.333Z" transform="translate(-0.667 -1)"/></svg>