<svg xmlns="http://www.w3.org/2000/svg" xmlns:xlink="http://www.w3.org/1999/xlink" width="120" height="120" viewBox="0 0 120 120"><defs><style>.a{fill:rgba(227,90,90,0.1);}.b,.c{fill:#e35a5a;}.b{opacity:0;}.d{filter:url(#a);}</style><filter id="a" x="0" y="0" width="120" height="120" filterUnits="userSpaceOnUse"><feOffset dy="10" input="SourceAlpha"/><feGaussianBlur stdDeviation="15" result="b"/><feFlood flood-color="#7090b0" flood-opacity="0.122"/><feComposite operator="in" in2="b"/><feComposite in="SourceGraphic"/></filter></defs><g transform="translate(35 26)"><g class="d" transform="matrix(1, 0, 0, 1, -35, -26)"><rect class="a" width="30" height="30" rx="12" transform="translate(45 35)"/></g><g transform="translate(17 16)"><rect class="b" width="16" height="16" transform="translate(16) rotate(90)"/><path class="c" d="M15.378,11.532l-5.113-8.48a2.287,2.287,0,0,0-3.853,0L1.3,11.532a2,2,0,0,0-.033,2,2.247,2.247,0,0,0,1.96,1.133H13.451a2.247,2.247,0,0,0,1.96-1.107,2,2,0,0,0-.033-2.027ZM8.338,12A.667.667,0,1,1,9,11.332.667.667,0,0,1,8.338,12ZM9,9.332a.667.667,0,0,1-1.333,0V6.666A.667.667,0,0,1,9,6.666Z" transform="translate(-0.338 -0.666)"/></g></g></svg>