<svg xmlns="http://www.w3.org/2000/svg" xmlns:xlink="http://www.w3.org/1999/xlink" width="130" height="130" viewBox="0 0 130 130"><defs><style>.a{fill:rgba(72,163,104,0.1);}.b,.c{fill:#48a368;}.b{opacity:0;}.d{filter:url(#a);}</style><filter id="a" x="0" y="0" width="130" height="130" filterUnits="userSpaceOnUse"><feOffset dy="10" input="SourceAlpha"/><feGaussianBlur stdDeviation="15" result="b"/><feFlood flood-color="#7090b0" flood-opacity="0.122"/><feComposite operator="in" in2="b"/><feComposite in="SourceGraphic"/></filter></defs><g transform="translate(18 -403)"><g class="d" transform="matrix(1, 0, 0, 1, -18, 403)"><rect class="a" width="40" height="40" rx="12" transform="translate(45 35)"/></g><g transform="translate(37 448)"><rect class="b" width="20" height="20"/><path class="c" d="M10.333,2A8.5,8.5,0,0,0,2,10.642V14.5a3.333,3.333,0,1,0,3.333-3.333,3.258,3.258,0,0,0-1.667.467v-.992a6.833,6.833,0,0,1,6.667-6.975A6.833,6.833,0,0,1,17,10.642v.992a3.258,3.258,0,0,0-1.667-.467A3.333,3.333,0,1,0,18.666,14.5V10.642A8.5,8.5,0,0,0,10.333,2Z" transform="translate(-0.333 -0.333)"/></g></g></svg>