<svg xmlns="http://www.w3.org/2000/svg" xmlns:xlink="http://www.w3.org/1999/xlink" width="130" height="130" viewBox="0 0 130 130"><defs><style>.a{fill:rgba(227,90,90,0.1);}.b,.c{fill:#e35a5a;}.b{opacity:0;}.d{filter:url(#a);}</style><filter id="a" x="0" y="0" width="130" height="130" filterUnits="userSpaceOnUse"><feOffset dy="10" input="SourceAlpha"/><feGaussianBlur stdDeviation="15" result="b"/><feFlood flood-color="#7090b0" flood-opacity="0.122"/><feComposite operator="in" in2="b"/><feComposite in="SourceGraphic"/></filter></defs><g transform="translate(18 -403)"><g class="d" transform="matrix(1, 0, 0, 1, -18, 403)"><rect class="a" width="40" height="40" rx="12" transform="translate(45 35)"/></g><g transform="translate(37 448)"><rect class="b" width="20" height="20" transform="translate(20) rotate(90)"/><path class="c" d="M18.969,13.916l-6.392-10.6a2.858,2.858,0,0,0-4.817,0l-6.392,10.6a2.5,2.5,0,0,0-.042,2.5,2.808,2.808,0,0,0,2.45,1.417H16.56a2.808,2.808,0,0,0,2.45-1.383,2.5,2.5,0,0,0-.042-2.533Zm-8.8.583A.833.833,0,1,1,11,13.666.833.833,0,0,1,10.169,14.5ZM11,11.166a.833.833,0,1,1-1.667,0V7.833a.833.833,0,0,1,1.667,0Z" transform="translate(-0.169 -0.333)"/></g></g></svg>