<svg xmlns="http://www.w3.org/2000/svg" width="163" height="55.956" viewBox="0 0 163 55.956"><defs><style>.a{fill:#fff;}</style></defs><g transform="translate(-98.4 -274.2)"><path class="a" d="M27.2-5.45a3.025,3.025,0,0,0,1.45-.3V-.6A6.063,6.063,0,0,1,24.85.45q-4.25,0-5.65-3.2A11.448,11.448,0,0,1,10.6.65a9.549,9.549,0,0,1-6.65-2.3A7.758,7.758,0,0,1,1.4-7.7a7.063,7.063,0,0,1,2.9-6.1,11.53,11.53,0,0,1,6.95-2.1,15.324,15.324,0,0,1,7.2,1.55v-.75q0-4.7-6.6-4.7A14.418,14.418,0,0,0,4.3-17.7v-5.9a19.654,19.654,0,0,1,9.25-2q5.4,0,8.6,2.6a8.656,8.656,0,0,1,3.3,7.2v8.45Q25.45-5.45,27.2-5.45Zm-8.75-1.9v-2.5a9.232,9.232,0,0,0-5.2-1.45,6.559,6.559,0,0,0-3.575.85A2.7,2.7,0,0,0,8.35-8.05a2.754,2.754,0,0,0,1.2,2.425A5.653,5.653,0,0,0,12.8-4.8,6.681,6.681,0,0,0,18.45-7.35ZM40.6,0H33.55V-24.95H40.6v3.05a9.026,9.026,0,0,1,7.6-3.7,9.64,9.64,0,0,1,4.825,1.2,6.509,6.509,0,0,1,2.925,3.05,9,9,0,0,1,3.6-3.075,11.03,11.03,0,0,1,5-1.175,8.413,8.413,0,0,1,6.5,2.6q2.4,2.6,2.4,7.4V0H66.4V-14q0-5.15-4.15-5.15a5.478,5.478,0,0,0-3.05.95,5.849,5.849,0,0,0-2.15,2.45V0H50V-14q0-5.15-4.15-5.15a5.569,5.569,0,0,0-3,.95,6.306,6.306,0,0,0-2.25,2.35ZM87.25,0H80.2V-24.95h7.05ZM79.5-31.55a4.11,4.11,0,0,1,1.225-3.025A4.05,4.05,0,0,1,83.7-35.8a4.05,4.05,0,0,1,2.975,1.225A4.11,4.11,0,0,1,87.9-31.55a4.05,4.05,0,0,1-1.225,2.975A4.05,4.05,0,0,1,83.7-27.35a4.05,4.05,0,0,1-2.975-1.225A4.05,4.05,0,0,1,79.5-31.55ZM101.55,0H94.5V-24.95h7.05v4.2a9.539,9.539,0,0,1,3.5-3.4,10.047,10.047,0,0,1,5.2-1.45,4.04,4.04,0,0,1,.8.05v6.9a9.066,9.066,0,0,0-2.2-.25,8.23,8.23,0,0,0-4.475,1.275,7.073,7.073,0,0,0-2.825,3.075ZM119.5-7.75v-11.3h-4.9v-5.9h4.9V-31.8h7.05v6.85h7.1v5.9h-7.1v9.9a3.747,3.747,0,0,0,.8,2.675,3.5,3.5,0,0,0,2.6.825,8.084,8.084,0,0,0,3.65-.9V-.7A11.316,11.316,0,0,1,127.65.65Q119.5.65,119.5-7.75Zm43.45,2.3a3.025,3.025,0,0,0,1.45-.3V-.6A6.063,6.063,0,0,1,160.6.45q-4.25,0-5.65-3.2a11.448,11.448,0,0,1-8.6,3.4,9.549,9.549,0,0,1-6.65-2.3,7.758,7.758,0,0,1-2.55-6.05,7.063,7.063,0,0,1,2.9-6.1A11.53,11.53,0,0,1,147-15.9a15.324,15.324,0,0,1,7.2,1.55v-.75q0-4.7-6.6-4.7a14.418,14.418,0,0,0-7.55,2.1v-5.9a19.654,19.654,0,0,1,9.25-2q5.4,0,8.6,2.6a8.656,8.656,0,0,1,3.3,7.2v8.45Q161.2-5.45,162.95-5.45Zm-8.75-1.9v-2.5A9.232,9.232,0,0,0,149-11.3a6.559,6.559,0,0,0-3.575.85,2.7,2.7,0,0,0-1.325,2.4,2.754,2.754,0,0,0,1.2,2.425,5.653,5.653,0,0,0,3.25.825A6.681,6.681,0,0,0,154.2-7.35Z" transform="translate(97 310)"/><path class="a" d="M6.528-1.308a.726.726,0,0,0,.348-.072V-.144a1.455,1.455,0,0,1-.912.252A1.329,1.329,0,0,1,4.608-.66,2.748,2.748,0,0,1,2.544.156,2.292,2.292,0,0,1,.948-.4,1.862,1.862,0,0,1,.336-1.848a1.7,1.7,0,0,1,.7-1.464,2.767,2.767,0,0,1,1.668-.5,3.678,3.678,0,0,1,1.728.372v-.18q0-1.128-1.584-1.128a3.46,3.46,0,0,0-1.812.5V-5.664a4.717,4.717,0,0,1,2.22-.48,3.176,3.176,0,0,1,2.064.624,2.077,2.077,0,0,1,.792,1.728v2.028Q6.108-1.308,6.528-1.308Zm-2.1-.456v-.6A2.216,2.216,0,0,0,3.18-2.712a1.574,1.574,0,0,0-.858.2A.647.647,0,0,0,2-1.932a.661.661,0,0,0,.288.582,1.357,1.357,0,0,0,.78.2A1.6,1.6,0,0,0,4.428-1.764ZM9.744,0H8.052V-5.988H9.744v.732a2.166,2.166,0,0,1,1.824-.888,2.314,2.314,0,0,1,1.158.288,1.562,1.562,0,0,1,.7.732,2.16,2.16,0,0,1,.864-.738,2.647,2.647,0,0,1,1.2-.282,2.019,2.019,0,0,1,1.56.624,2.524,2.524,0,0,1,.576,1.776V0H15.936V-3.36q0-1.236-1-1.236a1.315,1.315,0,0,0-.732.228,1.4,1.4,0,0,0-.516.588V0H12V-3.36Q12-4.6,11-4.6a1.337,1.337,0,0,0-.72.228,1.514,1.514,0,0,0-.54.564Zm15.12-1.308a.726.726,0,0,0,.348-.072V-.144A1.455,1.455,0,0,1,24.3.108,1.329,1.329,0,0,1,22.944-.66,2.748,2.748,0,0,1,20.88.156a2.292,2.292,0,0,1-1.6-.552,1.862,1.862,0,0,1-.612-1.452,1.7,1.7,0,0,1,.7-1.464,2.767,2.767,0,0,1,1.668-.5,3.678,3.678,0,0,1,1.728.372v-.18q0-1.128-1.584-1.128a3.46,3.46,0,0,0-1.812.5V-5.664a4.717,4.717,0,0,1,2.22-.48,3.176,3.176,0,0,1,2.064.624,2.077,2.077,0,0,1,.792,1.728v2.028Q24.444-1.308,24.864-1.308Zm-2.1-.456v-.6a2.216,2.216,0,0,0-1.248-.348,1.574,1.574,0,0,0-.858.2.647.647,0,0,0-.318.576.661.661,0,0,0,.288.582,1.357,1.357,0,0,0,.78.2A1.6,1.6,0,0,0,22.764-1.764ZM28.08-3.816V0H26.388V-5.988H28.08v.72a2.608,2.608,0,0,1,2-.876,2.03,2.03,0,0,1,1.608.654,2.658,2.658,0,0,1,.576,1.818V0H30.576V-3.324a1.292,1.292,0,0,0-.318-.96,1.124,1.124,0,0,0-.822-.312,1.491,1.491,0,0,0-.762.222A1.735,1.735,0,0,0,28.08-3.816ZM39.3.156a2.626,2.626,0,0,1-2.028-.9A3.319,3.319,0,0,1,36.48-3a3.257,3.257,0,0,1,.792-2.232A2.588,2.588,0,0,1,39.3-6.144a2.376,2.376,0,0,1,1.968.888V-8.4H42.96V0H41.268V-.732A2.315,2.315,0,0,1,39.3.156Zm.48-1.476a1.6,1.6,0,0,0,.876-.252,1.758,1.758,0,0,0,.612-.648V-3.78a1.712,1.712,0,0,0-.612-.642,1.627,1.627,0,0,0-.876-.246,1.511,1.511,0,0,0-1.164.48A1.685,1.685,0,0,0,38.16-3a1.7,1.7,0,0,0,.456,1.2A1.511,1.511,0,0,0,39.78-1.32Zm10.536.012a.726.726,0,0,0,.348-.072V-.144a1.455,1.455,0,0,1-.912.252A1.329,1.329,0,0,1,48.4-.66a2.748,2.748,0,0,1-2.064.816,2.292,2.292,0,0,1-1.6-.552,1.862,1.862,0,0,1-.612-1.452,1.7,1.7,0,0,1,.7-1.464,2.767,2.767,0,0,1,1.668-.5,3.678,3.678,0,0,1,1.728.372v-.18q0-1.128-1.584-1.128a3.46,3.46,0,0,0-1.812.5V-5.664a4.717,4.717,0,0,1,2.22-.48A3.176,3.176,0,0,1,49.1-5.52,2.077,2.077,0,0,1,49.9-3.792v2.028Q49.9-1.308,50.316-1.308Zm-2.1-.456v-.6a2.216,2.216,0,0,0-1.248-.348,1.574,1.574,0,0,0-.858.2.647.647,0,0,0-.318.576.661.661,0,0,0,.288.582,1.357,1.357,0,0,0,.78.2A1.6,1.6,0,0,0,48.216-1.764Zm5.316-2.052V0H51.84V-5.988h1.692v.72a2.608,2.608,0,0,1,2-.876,2.03,2.03,0,0,1,1.608.654,2.658,2.658,0,0,1,.576,1.818V0H56.028V-3.324a1.292,1.292,0,0,0-.318-.96,1.124,1.124,0,0,0-.822-.312,1.491,1.491,0,0,0-.762.222A1.735,1.735,0,0,0,53.532-3.816Zm9.36,1.956V-4.572H61.716V-5.988h1.176V-7.632h1.692v1.644h1.7v1.416h-1.7V-2.2a.9.9,0,0,0,.192.642.84.84,0,0,0,.624.2,1.94,1.94,0,0,0,.876-.216v1.4a2.716,2.716,0,0,1-1.428.324A1.756,1.756,0,0,1,62.892-1.86ZM69.4,0H67.7V-5.988H69.4Zm-1.86-7.572A.986.986,0,0,1,67.83-8.3a.972.972,0,0,1,.714-.294.972.972,0,0,1,.714.294.986.986,0,0,1,.294.726.972.972,0,0,1-.294.714.972.972,0,0,1-.714.294.972.972,0,0,1-.714-.294A.972.972,0,0,1,67.536-7.572ZM72.828,0H71.136V-5.988h1.692V-4.98a2.289,2.289,0,0,1,.84-.816,2.411,2.411,0,0,1,1.248-.348.97.97,0,0,1,.192.012v1.656a2.176,2.176,0,0,0-.528-.06,1.975,1.975,0,0,0-1.074.306,1.7,1.7,0,0,0-.678.738Zm4.308-1.86V-4.572H75.96V-5.988h1.176V-7.632h1.692v1.644h1.7v1.416h-1.7V-2.2a.9.9,0,0,0,.192.642.84.84,0,0,0,.624.2,1.94,1.94,0,0,0,.876-.216v1.4a2.716,2.716,0,0,1-1.428.324A1.756,1.756,0,0,1,77.136-1.86Zm10.428.552a.726.726,0,0,0,.348-.072V-.144A1.455,1.455,0,0,1,87,.108,1.329,1.329,0,0,1,85.644-.66,2.748,2.748,0,0,1,83.58.156a2.292,2.292,0,0,1-1.6-.552,1.862,1.862,0,0,1-.612-1.452,1.7,1.7,0,0,1,.7-1.464,2.767,2.767,0,0,1,1.668-.5,3.678,3.678,0,0,1,1.728.372v-.18q0-1.128-1.584-1.128a3.46,3.46,0,0,0-1.812.5V-5.664a4.717,4.717,0,0,1,2.22-.48,3.176,3.176,0,0,1,2.064.624,2.077,2.077,0,0,1,.792,1.728v2.028Q87.144-1.308,87.564-1.308Zm-2.1-.456v-.6a2.216,2.216,0,0,0-1.248-.348,1.574,1.574,0,0,0-.858.2.647.647,0,0,0-.318.576.661.661,0,0,0,.288.582,1.357,1.357,0,0,0,.78.2A1.6,1.6,0,0,0,85.464-1.764Z" transform="translate(136 330)"/></g></svg>